PathFileType	4	(X/Y/Z)	Patient4_TMGait_0pt7_01_right_38.trc.trc
DataRate	CameraRate	NumFrames	NumMarkers	Units	OrigDataRate	OrigDataStartFrame	OrigNumFrames
84.848484848485	84.848484848485	6	33	mm	84.848484848485	53	       141
Frame#	Time	Sacral			L.Shoulder			Chest			R.Shoulder			Neck			R.ASIS			L.ASIS			R.Thigh.Superior			R.Thigh.Lateral			R.Thigh.Inferior			R.Patella			L.Thigh.Superior			L.Thigh.Lateral			L.Thigh.Inferior			L.Patella			L.Shank.Superior			L.Shank.Lateral			L.Shank.Inferior			R.Shank.Superior			R.Shank.Lateral			R.Shank.Inferior			R.Heel			R.Midfoot.Superior			R.Midfoot.Lateral			R.Toe			L.Heel			L.Midfoot.Lateral			L.Midfoot.Superior			L.Toe			L.Elbow			L.Wrist			R.Elbow			R.Wrist			
		X1	Y1	Z1	X2	Y2	Z2	X3	Y3	Z3	X4	Y4	Z4	X5	Y5	Z5	X6	Y6	Z6	X7	Y7	Z7	X8	Y8	Z8	X9	Y9	Z9	X10	Y10	Z10	X11	Y11	Z11	X12	Y12	Z12	X13	Y13	Z13	X14	Y14	Z14	X15	Y15	Z15	X16	Y16	Z16	X17	Y17	Z17	X18	Y18	Z18	X19	Y19	Z19	X20	Y20	Z20	X21	Y21	Z21	X22	Y22	Z22	X23	Y23	Z23	X24	Y24	Z24	X25	Y25	Z25	X26	Y26	Z26	X27	Y27	Z27	X28	Y28	Z28	X29	Y29	Z29	X30	Y30	Z30	X31	Y31	Z31	X32	Y32	Z32	X33	Y33	Z33	

53	44.002857142857	838.525041430456	1014.759845175164	535.004246092381	1018.308113600601	1430.773514823979	332.529823540496	1135.402622411161	1355.790175025732	483.158191686603	1076.322566794793	1439.180462814358	663.425989497824	1043.316034206638	1494.013042166964	486.129121324834	1072.784377155320	945.051320316569	633.178357417388	1034.906563359514	961.640788983764	361.003067032958	1096.609840766197	738.258562262621	600.078689611820	1009.539981261342	634.245254282241	662.407500080618	1075.941681406121	577.985525004659	577.239591298724	1068.504333186275	491.772638918598	579.968606595369	1129.947821925073	800.350049699860	386.334147874079	1097.705026156533	673.898316640265	301.660489590455	1210.873122038742	621.593059716749	357.227743698058	1235.214869995171	534.579345024480	345.157306402284	1177.661076900245	460.283716402221	337.938921721988	1041.521260990012	397.940148437587	297.221899100517	1054.802253260179	266.002806516816	344.805975693651	1039.867727756066	404.753985189525	586.351811614328	969.655071908414	301.424598556218	649.434773383817	1004.552031452432	207.328855323744	580.389712250294	864.163570607434	44.263620087530	554.912954432213	1038.294719579835	97.001911150172	580.524739403945	951.739438898069	37.459852832782	623.655178026448	1159.381780134117	41.349115558039	600.355402593730	881.922607717825	176.379823344612	393.933336141719	935.937327705075	136.947395488584	308.278636329865	1040.731799558137	155.218444328191	320.507239197833	1125.707347309889	50.759625146205	284.561605474948	915.001988479360	1088.213821932821	242.200045643176	892.222838381935	829.400097508785	237.643859002748	1104.394975516213	1101.941758266904	800.680105482823	1335.245550039797	1034.792605225670	715.226653598540	
54	44.014642857143	837.630405116500	1015.523932140436	536.078176495374	1017.715869331691	1430.944236910654	333.134833920032	1135.303007183889	1355.473558144618	483.101775991835	1077.522853655393	1439.024548495390	663.707120185384	1043.506018093952	1494.041324011731	486.698976269081	1071.673355849897	945.054443364298	633.723739911409	1033.385340630746	961.700438435191	361.558626304801	1092.380339036433	737.586888116396	600.566405739249	1004.042895465983	634.521220352881	663.379324344312	1069.496307161668	577.364779760654	578.372552165594	1061.043704980419	491.595682476503	581.327056540656	1129.024403770332	802.989527416840	387.408951314937	1099.000539029004	676.160159916464	302.069613510867	1212.572942331620	625.568323822321	357.842702624187	1238.942794737118	539.881625809679	345.312640338380	1185.143176887009	463.949919569478	338.026052465460	1053.006898980356	393.750143751513	297.437256243750	1074.521403522397	262.509225835458	344.632726629095	1032.140091388411	404.822978078121	587.477989040224	961.300110972765	301.641184008354	650.200762149162	996.442307665453	207.499070972070	581.146233626954	855.901709657840	44.444563567652	554.958110900958	1030.068175579874	97.017551441356	580.771509977038	943.442761665126	37.484677719906	623.665950048333	1151.063040947106	41.191959385833	600.502445711570	907.643254655184	160.938295768877	393.929677535295	964.219099009031	126.417039400671	307.754386280673	1067.599569264008	151.820735545108	319.937293096864	1159.821529760473	54.072322236981	282.815303439010	906.210846122012	1091.486727415661	242.452765104510	875.809453708664	833.619294725684	239.692072898066	1114.459499983662	1102.647598605044	799.499797102331	1347.635674721913	1051.794617601614	710.909068745909	
55	44.026428571429	836.809911149136	1016.145743042820	536.946195564938	1017.140290654798	1431.079664101169	333.696568585486	1135.213792739371	1355.031615464297	482.960322802980	1078.739937920453	1438.652764089350	663.935679317338	1043.702506236793	1493.953100215951	487.271722802965	1070.577182858378	944.985895604514	634.115740471370	1031.996506111239	961.522768465448	361.922901110492	1088.180088085689	736.902023275334	601.121267487722	998.463058925613	634.804586146375	664.313660946957	1063.053059432613	576.756401253983	579.566735666499	1053.590091451252	491.431594356676	582.752705489678	1127.815532242295	804.941175874815	388.360765101967	1099.802101183086	677.805135404442	302.402979317922	1213.475166245175	628.628670739431	358.577383571188	1241.701700744986	544.457680996423	345.677893250127	1191.850307787111	467.159637189050	338.321315169774	1064.592723196848	389.113070827985	297.281145411727	1094.272507501809	259.147715250143	344.393259227393	1024.375458286766	404.905140949045	588.628785608403	952.858415947072	301.888740324552	650.949947424514	988.314191176677	207.694065166838	581.925064269591	847.633369038718	44.638930285898	555.001591157930	1021.844239398216	97.033299018106	581.003402825811	935.149663766006	37.509162223190	623.660922612921	1142.747953774833	41.035913518072	600.638162606057	934.192221119346	146.024073793398	393.068626387292	993.413487469649	116.388931431988	306.875277973024	1094.742729491242	148.827934422822	319.546019070206	1193.838426239439	58.161620932435	282.186542049386	897.227095293634	1095.108594516858	242.470530407016	860.554408361027	838.167844796969	241.902439773682	1124.600077846745	1103.339353406286	798.019797803306	1359.011981362742	1068.439211141702	706.610278879785	
56	44.038214285714	836.071105883204	1016.601843570423	537.605401705103	1016.569319572035	1431.167299062878	334.200759036374	1135.118943593559	1354.468474717466	482.728397038305	1079.940498677269	1438.073484241462	664.097340864976	1043.888209729506	1493.742963504612	487.825358307501	1069.508486531383	944.841934394640	634.369861672359	1030.771895891319	961.108678799282	362.091089823195	1084.065045571318	736.200019925994	601.774349464195	992.846185545534	635.083567280376	665.201359633272	1056.678536055173	576.157029589416	580.818768328404	1046.209758156849	491.262242437216	584.220269884812	1126.360888197177	806.165736151825	389.190947030249	1100.106159233442	678.784874869034	302.661358208887	1213.608455664044	630.709333965888	359.417044259273	1243.515007580038	548.234732815640	346.282397116211	1197.745141592195	469.879385556844	338.855305137557	1076.229334373675	384.158407770726	296.743898826140	1113.843289933922	256.053045948772	344.112720044914	1016.622791169846	404.985744335994	589.784647543966	944.379169982586	302.161896736520	651.666951538322	980.188112876156	207.903900244902	582.710288354618	839.359093523192	44.842517175935	555.042579133788	1013.630840183503	97.052664841713	581.222381103723	926.860582436261	37.533072252809	623.643271727927	1134.439522529931	40.886304665592	600.762725327379	961.270000288194	131.928353761602	391.349523579614	1023.238837923180	107.130571377562	305.653852795638	1121.880426179619	146.416151916070	319.348752713050	1227.407053376343	63.148602751414	282.727120028555	888.204250129767	1099.015540318025	242.321426051411	846.339666442315	842.904160337183	244.246181130458	1134.751407553159	1104.044063346142	796.255191176671	1369.408126986694	1084.606305657738	702.367504925924	
57	44.050000000000	835.420701742699	1016.876296719035	538.049304446704	1015.996125487884	1431.197941338006	334.631704025456	1135.003069110661	1353.797384991640	482.405157131095	1081.083875263497	1437.306813183257	664.178879798145	1044.043294955051	1493.411420273484	488.336529191074	1068.481707524452	944.623079997170	634.504802194357	1029.743091987401	960.470273834619	362.064131219108	1080.086924434414	735.474604368167	602.539988246301	987.242852149383	635.346942126394	666.028992338867	1050.432130402710	575.561531093447	582.110510383621	1038.962539301057	491.069539635626	585.693044529439	1124.711492862247	806.647005396364	389.894219464819	1099.908955545152	679.067881406168	302.842521766808	1213.020468565313	631.776489283548	360.325165925562	1244.423170694328	551.162519446516	347.131829707668	1202.800315842416	472.083567407462	339.627358867315	1087.807549233847	379.010402121680	295.861108882374	1132.997110754066	253.317402078935	343.818907026963	1008.930152060424	405.052924386562	590.922847503437	935.913941427060	302.454640657773	652.335429978247	972.083379408001	208.117697581247	583.483789501139	831.080749486997	45.051088851785	555.079604666528	1005.435755364631	97.078890333307	581.431719918938	918.575744280635	37.556680271060	623.617459001216	1126.139699269178	40.747320819665	600.876468933061	988.529957671995	118.861880423471	388.870351537659	1053.327743997513	98.833086499766	304.149281483383	1148.689856222963	144.699132030371	319.344526868518	1260.151797211849	69.077913690700	284.372610260497	879.293187695984	1103.138131089119	242.067694114851	833.065803521357	847.726010534613	246.693577614429	1144.838473698043	1104.794106283453	794.217986113732	1378.867628121259	1100.198693295634	698.208991599064	
58	44.061785714286	834.865931796229	1016.959566756018	538.267371170867	1015.418551605154	1431.164157629356	334.972586311354	1134.852524545145	1353.038876691319	481.993805092135	1082.124913898664	1436.381935110428	664.168981123784	1044.145904871339	1492.963632389119	488.781784042473	1067.513090642547	944.332194878681	634.539268034269	1028.940193250240	959.627010009354	361.849526634235	1076.291884201992	734.717327013030	603.412133324437	981.709067655107	635.584276854936	666.779575595855	1044.365029671162	574.963073385935	583.409550332991	1031.901105623421	490.836450252512	587.125604356061	1122.931320293546	806.392202136266	390.459685271344	1099.215407178657	678.641856781254	302.942896583826	1211.780605878010	631.829375168458	361.249397994887	1244.485604274071	553.213543223744	348.205202497721	1207.000081114442	473.752442360669	340.602150503761	1099.152607462854	373.781026231659	294.718529212754	1151.472113226631	250.985449679468	343.541396604661	1001.345544765093	405.097387859005	592.018517752101	927.515566527341	302.760430177813	652.939702194396	964.018684610073	208.323813444086	584.226509047589	822.800841644732	45.261099489510	555.111288867676	997.265142675243	97.114238993037	581.635084669899	910.295170102396	37.580864825128	623.589020510622	1117.849256609010	40.621355340940	600.979749515779	1015.578942281954	106.959993115617	385.835764406765	1083.214241227379	91.606632343660	302.469501250930	1174.796715434096	143.718131333896	319.515252520763	1291.651080957996	75.896573972077	286.931203405664	870.632791612696	1107.401952798081	241.761457951369	820.666250302259	852.557867924838	249.214059631340	1154.777292283829	1105.623623411901	791.919688793789	1387.438370852057	1115.140196799485	694.155202424086	
